<svg xmlns="http://www.w3.org/2000/svg" width="252" height="63" viewBox="0 0 252 63">
    <defs>
        <linearGradient id="prefix__b" x1="-53.517%" x2="134.772%" y1="-10.264%" y2="99.352%">
            <stop offset="0%" stop-color="red"/>
            <stop offset="100%" stop-color="#C1262D"/>
        </linearGradient>
        <linearGradient id="prefix__c" x1="-53.519%" x2="134.777%" y1="-10.27%" y2="99.356%">
            <stop offset="0%" stop-color="red"/>
            <stop offset="100%" stop-color="#C1262D"/>
        </linearGradient>
        <linearGradient id="prefix__d" x1="-53.515%" x2="134.78%" y1="-10.264%" y2="99.352%">
            <stop offset="0%" stop-color="red"/>
            <stop offset="100%" stop-color="#C1262D"/>
        </linearGradient>
        <linearGradient id="prefix__e" x1="-53.513%" x2="134.77%" y1="-10.273%" y2="99.35%">
            <stop offset="0%" stop-color="red"/>
            <stop offset="100%" stop-color="#C1262D"/>
        </linearGradient>
        <linearGradient id="prefix__f" x1="-53.515%" x2="134.77%" y1="-10.271%" y2="99.354%">
            <stop offset="0%" stop-color="red"/>
            <stop offset="100%" stop-color="#C1262D"/>
        </linearGradient>
        <linearGradient id="prefix__g" x1="-53.495%" x2="134.755%" y1="-10.269%" y2="99.344%">
            <stop offset="0%" stop-color="red"/>
            <stop offset="100%" stop-color="#C1262D"/>
        </linearGradient>
        <linearGradient id="prefix__h" x1="-53.443%" x2="134.709%" y1="-10.249%" y2="99.34%">
            <stop offset="0%" stop-color="red"/>
            <stop offset="100%" stop-color="#C1262D"/>
        </linearGradient>
        <linearGradient id="prefix__i" x1="-53.486%" x2="134.742%" y1="-10.269%" y2="99.341%">
            <stop offset="0%" stop-color="red"/>
            <stop offset="100%" stop-color="#C1262D"/>
        </linearGradient>
        <linearGradient id="prefix__j" x1=".004%" x2="100.004%" y1="50%" y2="50%">
            <stop offset="0%" stop-color="red"/>
            <stop offset="100%" stop-color="#C1262D"/>
        </linearGradient>
        <linearGradient id="prefix__k" x1="-.003%" x2="100.002%" y1="50%" y2="50%">
            <stop offset="0%" stop-color="red"/>
            <stop offset="100%" stop-color="#C1262D"/>
        </linearGradient>
        <linearGradient id="prefix__l" x1="0%" x2="99.997%" y1="50.002%" y2="50.002%">
            <stop offset="0%" stop-color="red"/>
            <stop offset="100%" stop-color="#C1262D"/>
        </linearGradient>
        <radialGradient id="prefix__a" cx="47.68%" cy="40.057%" r="35.261%" fx="47.68%" fy="40.057%" gradientTransform="scale(1 .98085) rotate(30.722 .463 .404)">
            <stop offset="0%" stop-color="#3F9CF6"/>
            <stop offset="100%" stop-color="#0038AC"/>
        </radialGradient>
    </defs>
    <g fill="none" fill-rule="evenodd">
        <path fill="url(#prefix__a)" d="M36.03 3.185c.133.817 1.341 1.437 1.533 2.454.502 2.637-1.041 4.843-2.3 6.597-1.435-.779-3.72-3.005-3.682-5.216.024-1.357 1.576-1.66 1.688-2.915.338-3.815-5.029-3.364-4.91-.153.055 1.446.948 1.468 1.841 2.607-.524 3.618-3.315 4.97-5.983 6.444-.735-.79-1.912-1.279-3.374-.92-2.203-.909-.414-3.267-.92-4.91-.454-1.471-2.31-2.352-3.99-1.687-2.328.922-2.33 5.87 1.995 5.676.323.7.466 1.58.614 2.454-3.233.552-2.798 4.772-4.756 6.597-2.245-1.093-4.9-2.516-5.676-5.063-.148-.484.082-1.01 0-1.38-.218-.987-1.204-1.705-1.841-1.841-2.415-.517-3.494 1.09-3.446 2.697.055 1.823 1.561 3.647 4.213 2.366 2.176 1.199 3.856 2.893 5.062 5.061-1.398 1.262-3.077 2.241-3.375 4.603-1.462.407-1.925 1.178-3.221.92-1.376-.273-1.57-1.824-3.222-1.687-3.133.258-2.744 4.958.154 5.062 1.52.055 1.745-.877 2.915-1.84 1.939.984 4.008 1.007 4.602 2.914.87 2.792-2.742 6.014-4.602 5.984-1.058-.018-1.596-.986-2.455-1.075-.755-.077-1.706.166-2.148.613-2.871 2.915 3.398 6.677 4.45 1.995 3.941-.106 5.552 2.117 7.67 3.835-1.535 1.141-2.571 2.542-4.603 2.608-.266.009-.516-.079-.777-.166-.323-.108-.662-.216-1.064-.14-.656.123-1.62.839-1.84 1.227-2.477 4.351 6.227 6.758 5.215.613 1.156-1.247 2.375-2.432 4.143-3.068 1.71 2.789 1.778 7.222 6.442 7.057-.602 2.16-1.26 4.263-2.608 5.676-5.41.875-.992 7.3 1.994 4.602 1.223-1.105.703-3.516-.306-4.449.79-1.359 1.589-5.463 3.222-5.829 1.32-.296 2.679.696 4.12 1.688 1.443.992 2.969 1.984 4.624 1.687.729-.132 1.214-.804 2.147-1.075.884 1.04 2.366 1.683 2.455 3.07.085 1.318-1.01 1.73-.613 3.22.854 3.218 6.43.967 4.448-2.3-.612-1.009-1.7-.48-2.454-1.534-.043-1.935 0-3.784.92-4.756h2.148c.037 1.238.76 1.487.767 2.454.005.697-.714 1.296-.461 2.455.698 3.183 6.704 2.486 5.523-1.841-.63-2.308-3.99-.9-4.449-3.222 2.793-.326 3.293-2.946 4.295-5.063 2.941.537 4.944 2.012 6.29 4.143-.096 2.073 1.508 3.045 3.069 2.761 3.46-.628 1.742-6.893-2.302-4.602-2.29-1.186-4.34-2.614-5.214-5.216 1.61-1.405 3.665-2.368 4.141-4.909 3.36.076 2.926 2.788 4.755 3.529 2.662 1.077 4.095-.785 4.124-2.647.025-1.684-1.101-3.37-3.51-2.876-.955.195-.884.994-1.994 1.227-1.49.313-2.447-.342-3.683-.614-.073-1.625-1.078-3.095-.766-4.601 2.066-.122 1.968 1.704 3.22 1.994 2.141.494 3.197-.99 3.188-2.473-.008-1.518-1.13-3.035-3.34-2.437-1.016.276-1.726 2.444-2.915.921.45-2.089 1.254-5.458 3.835-5.676.75-.063 1.116.12 1.445.304.317.177.601.355 1.163.31 3.434-.277 2.4-5.391-.767-4.91-1.191.182-1.61 1.054-2.147 2.762-2.102.369-4.574.042-5.677-1.074.957-.33 1.579-.47 1.995-1.074 2.516-3.65-3.565-6.441-5.063-3.221.888-2.59 1.944-5.566 4.91-6.443 1.737-.514 2.694-.084 3.068-1.534 1.264-4.905-6.989-3.53-4.45.46-1.182 1.988-2.812 3.528-4.909 4.602-.6-.626-1.374-1.08-2.147-1.534 2.329-2.514-2.15-5.518-4.295-3.528.143-1.868-.024-3.501 1.074-4.91.544-.699 1.337-.786 1.533-1.533.387-1.47-.309-2.496-1.38-3.222-.219-.024-.43-.035-.632-.035-1.918 0-3.053 1.043-2.743 2.95"/>
        <path fill="#FFF" d="M37.007 37.824l-.758-1.063 2.94-8.024 1.66-.217 3.689 4.507-7.53 4.797zM45.94 50.82l-12.724-5.78 2.135-5.824 1.583-1.01 9.006 12.614zm-17.557 6.585l-4.005-11.2 4.461-2.842 4.021 1.827-4.477 12.215zm-14.495-4.854l3.795-14.256 4.257 1.935 2.095 5.857-10.147 6.464zM6.663 32.98l12.119-1.581.254.71-1.541 5.79-10.832-4.92zm6.6-18.156l8.49 7.082-2.433 9.137-.349.045-5.709-16.264zM32.31 31.246l-.011-.01-1.522-1.402 8.096-1.056-2.823 7.705-3.74-5.237zm-12.687-.242l2.364-8.881 8.153 7.509-10.517 1.372zm-.46.623l-.094-.266.172-.022-.077.288zm2.644 8.231l-4.051-1.84 1.448-5.439 2.603 7.28zm6.723 3.366L24.28 45.93l-1.98-5.539 6.231 2.832zm6.426-3.758l-2 5.457-3.833-1.742 5.833-3.715zm1.175-2.383l.637.893-1.258.801.62-1.694zm-1.014 1.945l-6.302 4.013-6.65-3.02-2.833-7.924.212-.797 10.868-1.418 1.685 1.552 3.835 5.37-.815 2.224zM25.331 9.563l14.218 17.37-.566 1.545-8.477 1.106-8.436-7.77L25.33 9.562zm15.307 18.699l-1.338.175.457-1.25.88 1.075zm4.545-17.666l3.899 16.565-8.114 1.057-1.097-1.34 5.312-16.282zm9.201 16.159l-4.35 2.771-.59-2.126 4.94-.645zm-9.605 6.119l-3.6-4.397 7.98-1.04.624 2.249-5.004 3.188zm8.91 10.887l-8.73-10.666 4.904-3.124 3.827 13.79zm.634 1.22l-4.21-15.17 5.498-3.502-6.244.815L45.22 9.672l-5.557 16.952L25.2 8.956l-3.366 12.64-9.225-7.758 6.075 17.288-13.042 1.7 11.778 5.351-3.994 15.003 10.706-6.82 4.247 11.877 4.739-12.93 13.665 6.207-9.61-13.46 7.546-4.806 9.604 11.733z"/>
        <path fill="url(#prefix__b)" d="M25.25 58.277c0 1.665 1.35 3.013 3.013 3.013 1.663 0 3.012-1.348 3.012-3.013 0-1.661-1.35-3.01-3.012-3.01-1.664 0-3.012 1.349-3.012 3.01"/>
        <path fill="url(#prefix__c)" d="M12.792 52.155c0 1.097.89 1.985 1.985 1.985 1.096 0 1.985-.888 1.985-1.985 0-1.096-.889-1.985-1.985-1.985s-1.985.889-1.985 1.985"/>
        <path fill="url(#prefix__d)" d="M4.863 33.467c0 1.096.89 1.984 1.986 1.984s1.985-.888 1.985-1.984c0-1.097-.89-1.986-1.985-1.986-1.096 0-1.986.89-1.986 1.986"/>
        <path fill="url(#prefix__e)" d="M11.093 15.344c0 1.097.89 1.986 1.985 1.986 1.096 0 1.985-.89 1.985-1.986s-.889-1.985-1.985-1.985-1.985.889-1.985 1.985"/>
        <path fill="url(#prefix__f)" d="M22.42 7.982c0 1.096.888 1.985 1.985 1.985 1.096 0 1.984-.889 1.984-1.985s-.888-1.985-1.984-1.985c-1.097 0-1.986.889-1.986 1.985"/>
        <path fill="url(#prefix__g)" d="M43.373 9.114c0 1.097.89 1.986 1.985 1.986 1.097 0 1.985-.89 1.985-1.986s-.888-1.984-1.985-1.984c-1.096 0-1.985.888-1.985 1.984"/>
        <path fill="url(#prefix__h)" d="M53.695 26.713c0 .685.555 1.242 1.241 1.242.687 0 1.242-.557 1.242-1.242 0-.686-.555-1.242-1.242-1.242-.686 0-1.24.556-1.24 1.242"/>
        <path fill="url(#prefix__i)" d="M51.868 43.162c0 1.134.92 2.055 2.054 2.055s2.053-.92 2.053-2.055c0-1.134-.919-2.053-2.053-2.053-1.135 0-2.054.919-2.054 2.053"/>
        <path fill="url(#prefix__j)" d="M27.222 43.404c0 .887.72 1.606 1.607 1.606.888 0 1.607-.719 1.607-1.606 0-.888-.72-1.607-1.607-1.607s-1.607.72-1.607 1.607"/>
        <path fill="#0038AD" d="M25.905 46.235c0 .888-.72 1.607-1.607 1.607s-1.606-.72-1.606-1.607c0-.886.72-1.606 1.606-1.606.887 0 1.607.72 1.607 1.606M19.11 38.307c0 .887-.72 1.607-1.607 1.607-.888 0-1.607-.72-1.607-1.607s.72-1.607 1.607-1.607 1.606.72 1.606 1.607M20.808 31.51c0 .888-.72 1.608-1.606 1.608-.888 0-1.607-.72-1.607-1.607s.72-1.606 1.607-1.606c.886 0 1.606.719 1.606 1.606M23.64 21.884c0 .886-.72 1.606-1.606 1.606-.888 0-1.607-.72-1.607-1.606 0-.887.72-1.607 1.607-1.607.886 0 1.606.72 1.606 1.607M41.196 28.113c0 .887-.72 1.607-1.607 1.607s-1.607-.72-1.607-1.607.72-1.606 1.607-1.606 1.607.72 1.607 1.606"/>
        <path fill="url(#prefix__k)" d="M28.92 29.812c0 .887.72 1.607 1.608 1.607.887 0 1.606-.72 1.606-1.607s-.72-1.606-1.606-1.606c-.887 0-1.607.719-1.607 1.606"/>
        <path fill="#0038AD" d="M37.798 38.307c0 .887-.72 1.607-1.606 1.607-.888 0-1.607-.72-1.607-1.607s.72-1.607 1.607-1.607c.886 0 1.606.72 1.606 1.607"/>
        <path fill="url(#prefix__l)" d="M43.08 32.644c0 .887.72 1.606 1.606 1.606.887 0 1.607-.72 1.607-1.606 0-.887-.72-1.607-1.607-1.607s-1.607.72-1.607 1.607"/>
        <g fill="#FFF" opacity=".05">
            <g>
                <path d="M13.238 22.476c0 .528-.429.956-.956.956-.527 0-.955-.428-.955-.956s.428-.956.955-.956c.527 0 .956.428.956.956M8.707 25.307c0 .529-.428.956-.955.956-.528 0-.956-.427-.956-.956 0-.527.428-.955.956-.955.527 0 .955.428.955.955M1.911 17.38c0 .527-.428.955-.955.955-.528 0-.956-.428-.956-.956s.428-.956.956-.956c.527 0 .955.428.955.956M3.61 10.583c0 .528-.427.956-.955.956-.527 0-.956-.428-.956-.956 0-.527.429-.955.956-.955.528 0 .956.428.956.955M6.442.956c0 .528-.428.955-.956.955-.527 0-.955-.427-.955-.955S4.959 0 5.486 0c.528 0 .956.428.956.956M23.998 7.186c0 .527-.428.955-.956.955-.527 0-.955-.428-.955-.955 0-.529.428-.956.955-.956.528 0 .956.427.956.956M14.937 8.884c0 .528-.428.956-.956.956s-.955-.428-.955-.956.427-.955.955-.955.956.427.956.955M20.6 17.38c0 .527-.428.955-.955.955-.528 0-.957-.428-.957-.956s.429-.956.957-.956c.527 0 .955.428.955.956M29.095 11.716c0 .527-.428.956-.956.956-.527 0-.955-.429-.955-.956 0-.527.428-.956.955-.956.528 0 .956.429.956.956" transform="translate(.112) translate(16.055 20.664)"/>
            </g>
            <path d="M29.23 57.784c0 .989-.803 1.79-1.79 1.79-.99 0-1.792-.801-1.792-1.79 0-.99.802-1.791 1.791-1.791.988 0 1.79.802 1.79 1.791M15.377 51.83c0 .65-.53 1.18-1.18 1.18-.653 0-1.182-.53-1.182-1.18 0-.654.53-1.182 1.181-1.182.652 0 1.18.528 1.18 1.182M7.448 33.14c0 .652-.529 1.182-1.18 1.182-.652 0-1.181-.53-1.181-1.181 0-.653.529-1.181 1.18-1.181.652 0 1.181.528 1.181 1.18M13.678 15.019c0 .65-.53 1.18-1.18 1.18-.653 0-1.182-.53-1.182-1.18 0-.653.53-1.181 1.181-1.181.652 0 1.18.528 1.18 1.18M25.004 7.657c0 .65-.529 1.18-1.18 1.18-.652 0-1.181-.53-1.181-1.18 0-.653.529-1.182 1.18-1.182.652 0 1.181.529 1.181 1.182M45.958 8.79c0 .65-.529 1.18-1.18 1.18-.652 0-1.181-.53-1.181-1.18 0-.653.529-1.182 1.18-1.182.652 0 1.181.529 1.181 1.182M55.269 26.51c0 .406-.33.738-.738.738s-.738-.332-.738-.739c0-.408.33-.738.738-.738s.738.33.738.738M54.546 42.826c0 .674-.547 1.22-1.221 1.22-.675 0-1.223-.546-1.223-1.22 0-.675.548-1.222 1.223-1.222.674 0 1.22.547 1.22 1.222M18.971 59.498c0 .99-.803 1.791-1.79 1.791-.99 0-1.793-.802-1.793-1.791 0-.99.803-1.79 1.792-1.79.988 0 1.791.8 1.791 1.79M7.857 48.384c0 .989-.803 1.791-1.79 1.791-.99 0-1.793-.802-1.793-1.79 0-.99.803-1.792 1.792-1.792.988 0 1.791.802 1.791 1.791M4.438 39.408c0 .988-.803 1.79-1.791 1.79-.99 0-1.792-.802-1.792-1.79 0-.99.803-1.792 1.792-1.792.988 0 1.79.803 1.79 1.792M3.583 27.862c0 .988-.803 1.79-1.791 1.79-.99 0-1.792-.802-1.792-1.79 0-.99.802-1.792 1.792-1.792.988 0 1.79.802 1.79 1.792M6.148 13.333c0 .988-.803 1.79-1.792 1.79s-1.791-.802-1.791-1.79c0-.99.802-1.792 1.791-1.792.989 0 1.792.802 1.792 1.792M18.544 6.493c0 .989-.803 1.792-1.791 1.792-.99 0-1.792-.803-1.792-1.792s.802-1.79 1.792-1.79c.988 0 1.79.801 1.79 1.79M40.344 1.792c0 .988-.802 1.79-1.79 1.79-.99 0-1.792-.802-1.792-1.79 0-.99.802-1.792 1.791-1.792.989 0 1.791.802 1.791 1.792M54.022 8.203c0 .99-.802 1.791-1.79 1.791-.99 0-1.792-.802-1.792-1.79 0-.99.802-1.792 1.792-1.792.988 0 1.79.802 1.79 1.791" transform="translate(.112)"/>
        </g>
        <path fill="#FFF" fill-rule="nonzero" d="M210.35 23.364c2.968 0 5.268.894 6.9 2.682 1.582 1.838 2.374 4.395 2.374 7.673v.82c0 .249-.025.422-.074.521h-12.835c.049 1.54.42 2.682 1.113 3.427.642.795 1.607 1.192 2.894 1.192.84 0 1.557-.173 2.15-.521.15-.05.285-.137.409-.261l.264-.265.144-.145c.049-.149.234-.347.556-.596.321-.248.779-.372 1.373-.372h3.71c-.545 2.085-1.585 3.675-3.117 4.768-1.534 1.142-3.462 1.713-5.786 1.713-2.82 0-5.021-.919-6.603-2.757-1.584-1.787-2.374-4.345-2.374-7.673 0-3.178.766-5.661 2.3-7.45 1.582-1.836 3.783-2.756 6.602-2.756zm22.346 0c2.967 0 5.267.894 6.9 2.682 1.582 1.838 2.374 4.395 2.374 7.673v.82c0 .249-.026.422-.075.521h-12.834c.048 1.54.42 2.682 1.113 3.427.642.795 1.606 1.192 2.893 1.192.84 0 1.558-.173 2.152-.521.148-.05.283-.137.407-.261l.409-.41c.049-.149.234-.347.556-.596.32-.248.779-.372 1.372-.372h3.71c-.545 2.085-1.584 3.675-3.116 4.768-1.534 1.142-3.463 1.713-5.787 1.713-2.819 0-5.02-.919-6.603-2.757-1.583-1.787-2.373-4.345-2.373-7.673 0-3.178.766-5.661 2.3-7.45 1.582-1.836 3.783-2.756 6.602-2.756zm-69.263.447v12.665c0 1.192.345 2.06 1.038 2.607.693.547 1.484.82 2.375.82.89 0 1.693-.273 2.41-.82.717-.546 1.077-1.415 1.077-2.607V26.344c0-.695.234-1.291.705-1.788.469-.496 1.075-.745 1.817-.745h2.596v11.621c0 3.528-.915 5.837-2.745 6.929-1.83 1.093-3.833 1.639-6.008 1.639-2.128-.1-4.07-.695-5.825-1.788-1.756-1.092-2.633-3.352-2.633-6.78V23.811h5.193zm-80.762 0c.692 0 1.285.25 1.78.745.494.497.742 1.093.742 1.788v17.283H80V23.811h2.67zm27.093-.447c2.176 0 4.18.572 6.01 1.714s2.745 3.452 2.745 6.928v11.621h-2.597c-.742 0-1.348-.234-1.818-.707-.47-.472-.704-1.08-.704-1.825V30.963c0-1.192-.36-2.06-1.076-2.608-.717-.546-1.52-.82-2.411-.82-.89 0-1.695.274-2.411.82-.718.547-1.076 1.416-1.076 2.608v12.664h-5.12V30.963c0-1.192-.358-2.06-1.075-2.608-.717-.546-1.52-.82-2.41-.82-.891 0-1.683.274-2.375.82-.693.547-1.039 1.416-1.039 2.608v12.664h-5.193V32.006c0-3.377.878-5.637 2.634-6.78 1.755-1.142 3.697-1.762 5.824-1.862 1.137 0 2.25.125 3.338.372 1.088.25 2.078.746 2.968 1.49.742-.644 1.619-1.104 2.634-1.378 1.013-.272 2.064-.434 3.152-.484zm34.513 0c2.176 0 4.18.572 6.01 1.714 1.829 1.142 2.745 3.452 2.745 6.928v11.621h-2.597c-.742 0-1.348-.234-1.818-.707-.47-.472-.705-1.08-.705-1.825V30.963c0-1.192-.359-2.06-1.075-2.608-.718-.546-1.521-.82-2.411-.82-.89 0-1.695.274-2.412.82-.717.547-1.075 1.416-1.075 2.608v12.664h-5.12V30.963c0-1.192-.359-2.06-1.075-2.608-.718-.546-1.52-.82-2.411-.82-.89 0-1.682.274-2.374.82-.693.547-1.039 1.416-1.039 2.608v12.664h-5.193V32.006c0-3.377.877-5.637 2.634-6.78 1.755-1.142 3.696-1.762 5.824-1.862 1.137 0 2.25.125 3.338.372 1.087.25 2.078.746 2.967 1.49.742-.644 1.62-1.104 2.634-1.378 1.014-.272 2.065-.434 3.153-.484zm44.247 0c2.176 0 4.179.572 6.01 1.714 1.829 1.142 2.744 3.452 2.744 6.928v11.621h-2.597c-.741 0-1.348-.234-1.817-.707-.471-.472-.705-1.08-.705-1.825V30.963c0-1.192-.36-2.06-1.076-2.608-.717-.546-1.52-.82-2.41-.82-.89 0-1.683.274-2.375.82-.693.547-1.038 1.416-1.038 2.608v12.664h-5.194V32.006c0-3.377.878-5.637 2.634-6.78 1.755-1.142 3.697-1.762 5.824-1.862zM249.478 18c.692 0 1.285.236 1.78.708.494.472.742 1.055.742 1.75v23.17h-5.193V18h2.67zm-38.98 9.685c-1.088 0-1.978.348-2.67 1.043-.693.696-1.064 1.689-1.113 2.98h7.568c-.1-1.341-.445-2.334-1.039-2.98-.644-.695-1.558-1.043-2.745-1.043zm22.346 0c-1.088 0-1.979.348-2.67 1.043-.694.696-1.065 1.689-1.113 2.98h7.567c-.1-1.341-.445-2.334-1.039-2.98-.643-.695-1.558-1.043-2.745-1.043zM82.671 18c.692 0 1.285.25 1.78.745.494.497.742 1.093.742 1.788v1.565H80V18h2.67z"/>
    </g>
</svg>
