<?xml version="1.0" standalone="no"?>
<!DOCTYPE svg PUBLIC "-//W3C//DTD SVG 20010904//EN"
 "http://www.w3.org/TR/2001/REC-SVG-20010904/DTD/svg10.dtd">
<svg version="1.0" xmlns="http://www.w3.org/2000/svg"
 width="3493.000000pt" height="722.000000pt" viewBox="0 0 3493.000000 722.000000"
 preserveAspectRatio="xMidYMid meet">

<g transform="translate(0.000000,722.000000) scale(0.100000,-0.100000)"
fill="#000000" stroke="none">
<path d="M3405 6444 c-16 -2 -73 -9 -125 -15 -382 -43 -795 -181 -1127 -374
-236 -139 -421 -281 -619 -479 -497 -497 -790 -1111 -864 -1816 -15 -135 -15
-465 0 -600 62 -584 276 -1110 641 -1570 107 -135 345 -372 480 -477 440 -342
897 -536 1464 -619 187 -28 620 -26 815 4 652 101 1203 372 1664 821 766 747
1072 1823 815 2870 -97 397 -285 780 -550 1121 -92 119 -304 337 -429 442
-467 392 -1031 628 -1644 687 -100 10 -449 13 -521 5z m-1913 -2099 c172 -30
332 -95 498 -202 132 -86 343 -268 380 -328 29 -47 26 -94 -9 -141 -54 -73
-89 -104 -116 -104 -19 0 -30 8 -43 33 -23 43 -178 195 -274 268 -145 109
-271 170 -429 210 -124 32 -139 14 -139 -162 0 -128 10 -159 73 -229 41 -45
67 -103 67 -146 -1 -29 -38 -106 -68 -138 -29 -31 -115 -76 -146 -76 -69 0
-169 68 -206 141 -38 73 -23 145 46 221 78 87 94 161 75 349 -18 182 3 262 80
301 42 22 100 23 211 3z m2393 -9 c162 -35 332 -113 476 -215 111 -80 252
-204 320 -284 78 -89 78 -107 2 -191 -32 -35 -69 -68 -81 -75 -21 -10 -27 -8
-50 21 -57 70 -230 231 -292 273 -63 43 -65 43 -73 22 -5 -12 -7 -58 -5 -102
5 -88 20 -127 75 -189 82 -91 83 -178 3 -270 -87 -98 -200 -108 -295 -24 -103
91 -111 205 -20 298 60 62 69 97 67 255 -3 167 -5 172 -126 212 -74 25 -95 27
-241 27 -124 1 -172 -3 -215 -16 -77 -24 -144 -69 -177 -119 -25 -38 -28 -51
-28 -128 0 -92 6 -109 95 -249 42 -66 52 -149 25 -205 -34 -73 -128 -137 -200
-137 -32 0 -117 45 -147 76 -30 33 -67 109 -68 139 0 47 23 95 75 155 62 71
67 90 63 209 l-3 83 -62 -46 c-147 -108 -261 -234 -413 -456 -127 -185 -211
-288 -327 -401 -262 -256 -535 -396 -836 -429 -82 -9 -110 -9 -142 2 -94 32
-115 161 -35 219 15 11 66 25 125 34 128 20 201 53 263 119 58 61 77 109 76
196 0 84 -22 147 -84 245 -61 96 -74 134 -67 192 11 97 113 187 212 187 106 0
215 -104 215 -205 0 -60 -33 -129 -83 -178 -44 -42 -72 -140 -65 -233 4 -51 9
-65 32 -85 15 -12 35 -23 44 -23 9 0 82 66 162 147 115 117 173 187 277 335
73 102 168 228 211 280 264 313 548 485 897 544 100 17 324 12 420 -10z m2143
-55 c55 -39 66 -90 58 -264 -9 -222 10 -301 95 -393 75 -83 68 -174 -23 -261
-106 -102 -271 -74 -338 58 -40 77 -21 168 49 244 45 49 60 92 68 190 6 79 -7
140 -39 180 -19 24 -26 27 -63 22 -55 -8 -261 -88 -353 -137 -40 -22 -103 -61
-140 -87 -90 -63 -294 -269 -368 -369 -32 -45 -91 -126 -131 -180 -270 -371
-594 -604 -963 -694 -122 -30 -353 -33 -468 -7 -193 44 -377 131 -544 257
-114 86 -318 287 -318 314 0 9 7 31 16 47 26 50 107 159 118 159 6 0 31 -23
55 -51 71 -82 259 -247 361 -314 111 -74 206 -117 322 -145 125 -30 114 -39
121 108 10 205 -11 301 -92 406 -50 65 -56 88 -40 145 24 86 134 172 220 171
34 -1 109 -36 142 -68 41 -39 70 -100 70 -149 0 -34 -8 -52 -42 -97 -75 -97
-84 -134 -89 -350 l-4 -188 54 7 c88 12 217 53 314 100 200 97 373 258 597
557 286 382 467 548 742 683 244 119 527 168 613 106z m-433 -575 c59 -28 98
-66 119 -118 33 -77 16 -144 -60 -241 -57 -72 -64 -97 -64 -225 0 -112 14
-159 53 -185 41 -26 122 -47 241 -63 170 -22 196 -39 196 -129 0 -104 -53
-141 -185 -130 -321 26 -569 140 -859 394 -164 144 -170 173 -58 308 42 53 70
55 107 11 55 -67 229 -218 279 -243 l51 -26 7 38 c10 57 9 133 -3 176 -5 21
-31 63 -55 93 -49 60 -74 110 -74 146 0 41 46 123 91 161 71 61 134 71 214 33z"/>
<path d="M8440 4363 c-137 -13 -284 -58 -367 -112 -123 -80 -221 -215 -254
-351 -30 -124 -11 -309 43 -414 29 -56 112 -141 173 -176 74 -42 233 -92 445
-140 346 -78 437 -111 487 -176 64 -85 32 -233 -64 -294 -84 -53 -140 -65
-313 -65 -135 0 -163 3 -214 22 -112 42 -173 110 -203 224 l-17 69 -195 0
-194 0 7 -70 c28 -277 209 -474 507 -550 222 -57 508 -48 701 23 101 36 172
84 249 164 113 119 159 236 159 405 0 245 -107 401 -337 490 -41 16 -196 58
-346 94 -407 96 -463 118 -506 194 -19 34 -23 52 -19 100 6 78 40 128 116 168
81 43 152 56 273 50 206 -10 328 -89 360 -234 l12 -54 195 0 194 0 -7 63 c-30
259 -182 437 -452 526 -126 42 -288 59 -433 44z"/>
<path d="M15300 3325 l0 -985 190 0 190 0 0 435 c0 281 4 453 11 487 36 168
138 258 296 258 134 0 206 -63 232 -205 7 -37 11 -229 11 -517 l0 -458 190 0
190 0 0 538 c0 301 -4 563 -10 596 -40 244 -294 400 -580 357 -112 -17 -204
-66 -279 -148 l-61 -66 0 347 0 346 -190 0 -190 0 0 -985z"/>
<path d="M21700 4140 l0 -170 295 0 295 0 0 -815 0 -815 205 0 205 0 0 815 0
815 295 0 295 0 0 170 0 170 -795 0 -795 0 0 -170z"/>
<path d="M26350 3325 l0 -985 190 0 190 0 0 435 c0 281 4 453 11 487 36 168
138 258 296 258 134 0 206 -63 232 -205 7 -37 11 -229 11 -517 l0 -458 190 0
190 0 0 538 c0 301 -4 563 -10 596 -40 244 -294 400 -580 357 -112 -17 -204
-66 -279 -148 l-61 -66 0 347 0 346 -190 0 -190 0 0 -985z"/>
<path d="M28820 3325 l0 -985 745 0 745 0 0 175 0 175 -545 0 -545 0 0 255 0
255 480 0 480 0 0 170 0 170 -480 0 -480 0 0 210 0 210 520 0 520 0 0 175 0
175 -720 0 -720 0 0 -985z"/>
<path d="M30630 3325 l0 -985 695 0 695 0 0 175 0 175 -490 0 -490 0 0 810 0
810 -205 0 -205 0 0 -985z"/>
<path d="M32290 3325 l0 -985 190 0 190 0 0 695 c0 382 3 695 8 695 4 -1 186
-313 406 -695 l398 -695 204 0 204 0 0 985 0 985 -190 0 -190 0 0 -682 c-1
-577 -3 -680 -14 -665 -8 10 -184 317 -392 682 l-379 664 -217 1 -218 0 0
-985z"/>
<path d="M11852 3825 c-35 -8 -84 -24 -108 -36 -50 -24 -123 -92 -163 -153
l-26 -40 -3 102 -3 102 -184 0 -185 0 0 -730 0 -730 195 0 195 0 0 493 c0 548
2 566 62 624 90 87 275 84 351 -6 49 -59 50 -73 54 -608 l4 -503 189 0 189 0
3 503 3 502 26 50 c32 60 50 78 109 104 94 43 221 19 272 -50 47 -64 48 -73
48 -605 l0 -504 195 0 195 0 0 533 c0 321 -4 558 -11 597 -29 184 -172 328
-359 361 -114 19 -265 -7 -362 -64 -42 -24 -113 -93 -152 -147 -12 -17 -20
-21 -23 -12 -3 7 -23 39 -44 72 -45 66 -108 113 -184 136 -73 22 -208 27 -283
9z"/>
<path d="M14325 3833 c-115 -15 -242 -90 -311 -184 l-39 -54 -3 103 -3 102
-179 0 -180 0 0 -1015 0 -1015 185 0 185 0 0 371 0 371 66 -70 c78 -86 154
-126 264 -143 314 -47 587 148 671 481 16 65 22 127 26 265 6 220 -12 328 -77
463 -108 225 -355 358 -605 325z m123 -358 c216 -118 244 -620 44 -795 -109
-97 -290 -94 -401 6 -84 76 -121 188 -121 368 0 179 47 318 131 389 61 53 109
67 209 64 72 -3 93 -7 138 -32z"/>
<path d="M17465 3826 c-167 -28 -271 -82 -377 -195 -80 -86 -154 -226 -185
-351 -27 -110 -24 -345 6 -454 42 -158 143 -319 248 -398 123 -93 258 -131
463 -132 247 -1 389 50 525 188 166 167 243 410 215 676 -20 199 -98 370 -224
495 -82 81 -162 125 -281 155 -104 27 -284 34 -390 16z m310 -338 c128 -67
195 -211 195 -423 0 -212 -66 -355 -195 -423 -45 -24 -61 -27 -150 -27 -90 0
-106 3 -158 29 -136 66 -210 250 -193 479 20 269 144 403 366 394 67 -3 95 -9
135 -29z"/>
<path d="M19348 3830 c-129 -23 -211 -74 -290 -178 l-48 -63 0 105 0 106 -185
0 -185 0 0 -730 0 -730 190 0 189 0 3 468 c3 465 3 467 27 526 49 121 127 177
257 184 72 4 89 1 137 -21 63 -29 100 -75 116 -147 6 -27 11 -235 11 -527 l0
-483 196 0 195 0 -3 558 c-4 491 -6 564 -21 616 -46 157 -142 251 -306 300
-65 19 -218 28 -283 16z"/>
<path d="M23755 3829 c-145 -21 -298 -100 -394 -204 -128 -140 -181 -308 -181
-570 0 -208 31 -344 105 -460 46 -73 154 -167 245 -214 122 -64 210 -84 370
-84 155 -1 232 15 350 70 137 65 290 245 315 371 l7 32 -196 0 c-191 0 -195 0
-202 -22 -13 -43 -94 -117 -150 -138 -108 -40 -246 -20 -344 50 -61 43 -107
138 -125 258 l-7 42 523 0 522 0 -6 143 c-4 89 -14 173 -27 226 -39 162 -142
314 -270 399 -132 89 -343 128 -535 101z m248 -329 c29 -11 72 -36 94 -54 43
-38 88 -124 99 -194 l7 -42 -322 0 -321 0 6 28 c28 133 102 232 199 266 61 22
174 20 238 -4z"/>
<path d="M25295 3830 c-143 -23 -253 -78 -350 -175 -150 -150 -213 -354 -202
-654 6 -174 28 -268 88 -389 79 -156 199 -251 379 -299 91 -23 311 -23 400 0
185 50 313 154 399 323 31 61 61 160 61 201 l0 23 -189 0 -189 0 -12 -48 c-6
-26 -25 -72 -41 -101 -25 -44 -40 -57 -86 -78 -48 -22 -65 -25 -137 -21 -62 3
-92 10 -126 29 -98 54 -148 168 -157 360 -17 340 88 519 302 519 72 0 138 -22
179 -58 22 -20 76 -129 76 -154 0 -17 16 -18 193 -18 l194 0 -9 58 c-46 315
-243 472 -606 487 -59 2 -134 0 -167 -5z"/>
<path d="M9560 3688 c21 -62 142 -407 269 -766 l230 -653 -20 -56 c-44 -129
-85 -158 -221 -158 l-88 0 0 -146 0 -146 53 -7 c123 -14 290 1 367 35 86 38
131 102 216 309 43 106 594 1674 594 1692 0 4 -89 8 -198 8 l-199 0 -149 -534
c-82 -294 -152 -532 -156 -528 -3 4 -63 201 -133 437 -69 237 -140 474 -156
528 l-30 97 -209 0 -209 0 39 -112z"/>
<path d="M20200 3688 c21 -62 142 -407 269 -766 l230 -653 -20 -56 c-44 -129
-85 -158 -221 -158 l-88 0 0 -146 0 -146 53 -7 c123 -14 290 1 367 35 86 38
131 102 216 309 43 106 594 1674 594 1692 0 4 -89 8 -198 8 l-199 0 -149 -534
c-82 -294 -152 -532 -156 -528 -3 4 -63 201 -133 437 -69 237 -140 474 -156
528 l-30 97 -209 0 -209 0 39 -112z"/>
</g>
</svg>
