<?xml version="1.0" standalone="no"?>
<!DOCTYPE svg PUBLIC "-//W3C//DTD SVG 20010904//EN"
 "http://www.w3.org/TR/2001/REC-SVG-20010904/DTD/svg10.dtd">
<svg version="1.0" xmlns="http://www.w3.org/2000/svg"
 width="860.000000pt" height="562.000000pt" viewBox="0 0 860.000000 562.000000"
 preserveAspectRatio="xMidYMid meet">
<metadata>
Created by potrace 1.16, written by Peter Selinger 2001-2019
</metadata>
<g transform="translate(0.000000,562.000000) scale(0.100000,-0.100000)"
fill="#000000" stroke="none">
<path d="M6046 5178 c-28 -26 -88 -135 -346 -638 -97 -190 -207 -399 -245
-465 -103 -183 -174 -304 -215 -370 -20 -33 -105 -175 -189 -315 -83 -141
-180 -294 -215 -340 -98 -130 -275 -322 -295 -318 -11 2 -19 21 -27 58 -20 99
-40 120 -122 120 -76 0 -167 -42 -234 -107 -59 -58 -78 -61 -78 -13 0 66 -54
74 -154 23 -87 -44 -175 -116 -370 -301 -119 -114 -156 -142 -156 -122 0 25
69 147 168 299 50 75 123 131 172 131 41 0 67 24 104 98 22 43 13 56 -33 47
-107 -20 -244 -135 -346 -292 -114 -175 -133 -208 -179 -310 -71 -159 -71
-173 2 -173 72 0 183 86 342 264 125 140 281 258 307 232 4 -3 -4 -37 -16 -76
-13 -38 -20 -74 -16 -79 22 -36 125 16 217 109 63 64 162 130 195 130 31 0 57
-44 72 -121 15 -72 40 -94 96 -83 30 5 58 29 154 128 246 254 326 358 471 611
34 61 72 120 82 132 11 12 31 44 44 72 13 28 44 83 68 121 25 38 68 116 95
172 28 57 78 148 112 203 34 55 78 131 96 169 19 37 50 93 69 123 19 30 58 99
86 154 46 89 68 118 68 89 0 -6 -22 -99 -49 -208 -27 -108 -75 -307 -106 -442
-109 -478 -168 -715 -182 -745 -9 -16 -54 -88 -101 -159 -65 -98 -86 -137 -86
-162 0 -49 16 -61 57 -46 49 20 52 19 51 -13 -1 -34 -56 -316 -88 -450 l-21
-90 -55 -6 c-105 -12 -674 -104 -830 -134 -149 -29 -397 -72 -495 -86 -38 -6
-113 -21 -165 -34 -52 -13 -156 -35 -230 -50 -175 -35 -576 -127 -760 -175
-80 -21 -185 -48 -235 -60 -219 -55 -577 -163 -715 -217 -180 -71 -459 -188
-575 -241 -163 -75 -326 -134 -479 -172 -122 -31 -187 -37 -229 -21 -42 16
-63 102 -48 202 25 160 61 348 76 389 9 25 29 98 45 162 43 169 40 203 -18
192 -35 -7 -92 -64 -92 -93 0 -9 -9 -51 -20 -92 -19 -69 -77 -343 -122 -574
-33 -172 -12 -298 55 -327 58 -24 225 -14 350 21 143 41 143 41 116 -12 -12
-23 -39 -67 -59 -97 -55 -81 -78 -132 -96 -207 -18 -79 -12 -143 17 -169 47
-42 167 -10 278 74 59 45 182 200 213 270 28 62 48 166 48 255 0 61 4 80 18
92 38 33 287 140 492 211 118 41 231 81 250 88 65 25 413 125 565 162 83 20
155 40 160 44 6 4 69 20 140 34 72 15 198 44 280 66 83 21 287 66 455 99 168
34 323 65 345 71 22 5 61 10 87 10 26 0 59 5 75 11 15 5 203 39 418 75 214 35
425 71 469 80 95 19 126 5 46 -21 -95 -32 -160 -112 -160 -199 0 -57 36 -91
109 -101 81 -11 145 11 244 82 26 19 54 33 61 30 9 -4 15 -29 18 -82 3 -69 6
-80 31 -101 50 -43 89 -42 181 5 151 77 236 175 236 274 0 57 -22 109 -59 138
-23 19 -35 20 -106 14 -62 -5 -84 -3 -99 8 -19 14 -19 15 10 21 16 3 81 10
144 16 207 18 398 40 845 94 599 74 704 86 745 87 46 0 98 19 160 59 51 33 51
33 32 53 -30 29 -93 31 -253 8 -79 -11 -205 -28 -279 -36 -74 -8 -196 -24
-270 -35 -74 -10 -295 -35 -490 -55 -195 -20 -411 -42 -480 -50 -69 -8 -151
-15 -182 -15 -66 0 -62 -12 -48 128 9 95 11 110 50 282 11 52 32 151 45 220
46 238 81 310 149 310 18 0 56 9 86 19 30 11 100 24 155 31 55 6 134 15 175
20 73 9 1107 -2 1410 -15 163 -7 289 -24 400 -55 106 -30 124 -43 115 -86 -8
-44 2 -44 78 7 114 76 147 120 114 148 -22 18 -198 80 -257 91 -129 23 -305
31 -1000 45 -725 15 -836 13 -1005 -15 -75 -12 -142 -13 -149 -1 -7 11 132
195 253 336 163 190 353 385 469 482 65 53 142 118 173 144 31 26 73 57 95 69
21 12 66 44 99 69 33 26 101 74 150 105 101 65 165 122 165 147 0 9 -7 22 -16
30 -26 21 -133 -38 -334 -186 -47 -35 -104 -74 -127 -87 -56 -31 -261 -207
-412 -353 -196 -189 -363 -376 -499 -557 -86 -115 -132 -168 -145 -168 -22 0
-23 -6 23 165 17 61 43 166 59 235 117 496 214 845 320 1150 52 147 60 197 39
218 -20 20 -74 14 -102 -10z m-716 -3108 c37 -69 -182 -234 -238 -178 -18 18
-15 53 7 72 47 43 178 126 198 126 12 0 27 -9 33 -20z m279 -106 c33 -28 42
-75 20 -116 -11 -21 -66 -48 -97 -48 -27 0 -46 50 -39 106 9 82 58 107 116 58z
m-4473 -1019 c20 -82 -26 -214 -107 -308 -52 -60 -91 -81 -135 -72 -42 7 -51
36 -35 111 16 72 80 164 150 218 31 24 63 51 70 60 21 25 50 20 57 -9z"/>
<path d="M2643 4944 c-22 -23 -48 -33 -127 -51 -54 -12 -108 -29 -119 -36 -39
-26 -63 -240 -34 -297 l12 -24 295 3 c162 1 296 4 297 5 1 1 4 17 5 36 3 29
-1 36 -24 48 -46 22 -32 39 27 33 11 -1 43 -12 70 -25 28 -14 75 -35 105 -48
30 -12 78 -38 108 -56 41 -24 58 -29 68 -21 23 19 51 0 113 -73 153 -181 190
-334 160 -673 -18 -216 -45 -308 -145 -513 -65 -131 -114 -196 -262 -345 -128
-130 -256 -236 -372 -308 -47 -28 -103 -67 -125 -84 -98 -80 -441 -266 -557
-303 -35 -11 -102 -32 -150 -46 -66 -20 -88 -31 -93 -47 -11 -33 3 -84 30
-109 21 -20 30 -22 82 -15 134 17 314 83 408 150 17 12 53 35 80 50 91 52 218
137 395 264 192 138 391 325 527 496 76 95 170 270 217 403 84 237 107 700 46
897 -12 39 -29 90 -36 115 -21 69 -97 191 -160 259 -179 194 -423 304 -747
337 -63 6 -67 5 -94 -22z"/>
<path d="M2231 4788 c-12 -46 -53 -198 -91 -338 -38 -140 -73 -282 -79 -316
-6 -33 -20 -86 -31 -117 -11 -31 -20 -64 -20 -74 0 -16 -22 -91 -76 -264 -13
-42 -40 -139 -60 -215 -90 -353 -197 -686 -273 -854 -83 -182 -166 -430 -164
-490 1 -48 28 -100 53 -100 24 0 57 42 70 89 49 183 88 311 120 391 46 118
137 409 186 595 51 197 108 407 135 495 12 41 56 190 96 330 41 140 95 320
120 400 55 180 82 291 88 366 2 33 7 75 10 94 5 27 2 41 -15 63 -34 43 -46 34
-69 -55z"/>
</g>
</svg>
